<svg width="60" height="60" viewBox="0 0 60 60" fill="none" xmlns="http://www.w3.org/2000/svg">
<g clip-path="url(#clip0_720_23)">
<rect width="60" height="60" rx="30" fill="#2E4059"/>
<path d="M40.9357 13.4553L11.6854 30.3234C9.26666 31.7227 9.4987 35.3016 12.0862 36.3633L20.123 39.6891V45.6236C20.123 48.8861 24.2856 50.2291 26.2121 47.6345L29.2919 43.479L37.1599 46.7275C37.5748 46.8963 38.0107 46.9806 38.4466 46.9806C39.0232 46.9806 39.5927 46.833 40.106 46.5447C41.006 46.0384 41.6248 45.1384 41.7865 44.1189L45.9631 16.8936C46.392 14.0741 43.3686 12.0561 40.9357 13.4553ZM23.4981 45.6236V41.0813L26.0715 42.1431L23.4981 45.6236ZM38.4466 43.6056L27.6325 39.1407L37.4904 24.9163C38.2427 23.8265 36.8224 22.5609 35.824 23.4257L20.9527 36.3844L13.373 33.2485L42.6232 16.3733L38.4466 43.6056Z" fill="#FFF2D6" stroke="#FFF2D6" stroke-width="0.680451"/>
</g>
<defs>
<clipPath id="clip0_720_23">
<rect width="60" height="60" fill="white"/>
</clipPath>
</defs>
</svg>
