<svg width="60" height="60" viewBox="0 0 60 60" fill="none" xmlns="http://www.w3.org/2000/svg">
<g clip-path="url(#clip0_92_439)">
<rect width="60" height="60" rx="30" fill="#293241"/>
<path d="M42.7858 31.6997C42.4105 31.6997 42.0181 31.5802 41.6427 31.4949C40.8826 31.3274 40.1356 31.1051 39.4077 30.8295C38.6162 30.5416 37.7462 30.5566 36.965 30.8715C36.1839 31.1865 35.5469 31.7792 35.1765 32.5357L34.8012 33.3034C33.1394 32.379 31.6124 31.2309 30.2629 29.8912C28.9232 28.5417 27.775 27.0146 26.8506 25.3529L27.5672 24.8752C28.3236 24.5048 28.9164 23.8678 29.2313 23.0866C29.5463 22.3055 29.5613 21.4355 29.2733 20.644C29.0024 19.9145 28.7801 19.1678 28.6079 18.409C28.5226 18.0336 28.4544 17.6412 28.4032 17.2488C28.196 16.047 27.5665 14.9587 26.6282 14.1799C25.6898 13.401 24.5042 12.9828 23.2848 13.0005H18.1664C17.4311 12.9936 16.703 13.1452 16.0316 13.445C15.3601 13.7448 14.7612 14.1858 14.2755 14.7379C13.7898 15.2899 13.4288 15.9402 13.2169 16.6443C13.0051 17.3485 12.9475 18.09 13.0481 18.8184C13.957 25.966 17.2213 32.6071 22.3254 37.6927C27.4295 42.7782 34.0824 46.0183 41.2332 46.9012H41.8816C43.1397 46.9031 44.3544 46.4415 45.2938 45.6046C45.8336 45.1218 46.2647 44.53 46.5589 43.8683C46.853 43.2066 47.0033 42.49 46.9999 41.7658V36.6474C46.979 35.4623 46.5475 34.3212 45.7789 33.4189C45.0104 32.5165 43.9525 31.9089 42.7858 31.6997ZM43.6389 41.9364C43.6386 42.1787 43.5867 42.4181 43.4867 42.6387C43.3866 42.8593 43.2408 43.0561 43.0588 43.216C42.8687 43.3815 42.6459 43.5051 42.4048 43.5786C42.1637 43.6521 41.9099 43.6739 41.6598 43.6425C35.2702 42.8233 29.3351 39.9001 24.7908 35.3342C20.2465 30.7683 17.3516 24.8194 16.5627 18.426C16.5355 18.1761 16.5593 17.9233 16.6326 17.6828C16.7059 17.4424 16.8272 17.2193 16.9892 17.027C17.1491 16.845 17.3459 16.6991 17.5665 16.5991C17.7872 16.4991 18.0266 16.4472 18.2688 16.4469H23.3872C23.7839 16.4381 24.1713 16.5678 24.4828 16.8139C24.7942 17.0599 25.0101 17.4067 25.0933 17.7948C25.1615 18.2611 25.2469 18.7217 25.3492 19.1767C25.5463 20.0761 25.8086 20.9599 26.134 21.8212L23.7455 22.9302C23.5412 23.0239 23.3575 23.157 23.2049 23.3219C23.0522 23.4868 22.9337 23.6802 22.856 23.8911C22.7783 24.1019 22.7431 24.326 22.7522 24.5505C22.7614 24.775 22.8148 24.9955 22.9095 25.1993C25.3649 30.4589 29.5928 34.6868 34.8523 37.1422C35.2677 37.3129 35.7336 37.3129 36.149 37.1422C36.3618 37.0661 36.5573 36.9485 36.7242 36.7962C36.8912 36.6439 37.0262 36.4599 37.1215 36.255L38.1793 33.8665C39.0613 34.1819 39.9615 34.444 40.875 34.6513C41.3299 34.7536 41.7906 34.8389 42.2569 34.9072C42.6449 34.9904 42.9918 35.2063 43.2378 35.5177C43.4838 35.8291 43.6136 36.2166 43.6048 36.6133L43.6389 41.9364Z" fill="#E0FBFC" stroke="#E0FBFC" stroke-width="0.680451"/>
</g>
<defs>
<clipPath id="clip0_92_439">
<rect width="60" height="60" fill="white"/>
</clipPath>
</defs>
</svg>
