<svg width="60" height="60" viewBox="0 0 60 60" fill="none" xmlns="http://www.w3.org/2000/svg">
<g clip-path="url(#clip0_92_426)">
<rect y="0.000488281" width="60" height="60" rx="30" fill="#E0FBFC"/>
<path d="M40.9352 13.4558L11.6849 30.3239C9.26617 31.7232 9.49821 35.3021 12.0857 36.3638L20.1225 39.6896V45.6241C20.1225 48.8866 24.2851 50.2296 26.2117 47.635L29.2914 43.4795L37.1594 46.728C37.5743 46.8967 38.0102 46.9811 38.4462 46.9811C39.0227 46.9811 39.5923 46.8335 40.1055 46.5452C41.0056 46.0389 41.6243 45.1389 41.786 44.1194L45.9626 16.8941C46.3915 14.0745 43.3681 12.0566 40.9352 13.4558ZM23.4976 45.6241V41.0818L26.071 42.1436L23.4976 45.6241ZM38.4462 43.6061L27.632 39.1412L37.4899 24.9168C38.2422 23.827 36.8219 22.5613 35.8235 23.4262L20.9522 36.3849L13.3725 33.2489L42.6228 16.3738L38.4462 43.6061Z" fill="#293241" stroke="#293241" stroke-width="0.680451"/>
</g>
<defs>
<clipPath id="clip0_92_426">
<rect width="60" height="60" fill="white" transform="translate(0 0.000488281)"/>
</clipPath>
</defs>
</svg>
