<svg width="60" height="60" viewBox="0 0 60 60" fill="none" xmlns="http://www.w3.org/2000/svg">
<g clip-path="url(#clip0_92_444)">
<rect width="60" height="60" rx="30" fill="#293241"/>
<path d="M54.096 30.0481C54.096 25.2921 52.6858 20.6429 50.0436 16.6883C47.4015 12.7338 43.646 9.65146 39.2522 7.83114C34.8583 6.01082 30.0234 5.53423 25.3587 6.46165C20.694 7.38907 16.409 9.67884 13.0456 13.0414C9.68217 16.404 7.39135 20.6884 6.4628 25.3529C5.53424 30.0174 6.00964 34.8524 7.82889 39.2468C9.64814 43.6411 12.7295 47.3972 16.6835 50.0404C20.6374 52.6835 25.2862 54.0949 30.0422 54.096L30.048 54.0963L30.0538 54.096C36.4285 54.0873 42.5395 51.5507 47.0466 47.0426C51.5537 42.5345 54.0888 36.4228 54.096 30.0481ZM32.72 48.5581V36.283H37.1733C37.882 36.283 38.5616 36.0015 39.0627 35.5004C39.5638 34.9993 39.8453 34.3197 39.8453 33.611C39.8453 32.9023 39.5638 32.2227 39.0627 31.7216C38.5616 31.2205 37.882 30.939 37.1733 30.939H32.72V26.4857C32.7208 25.7773 33.0026 25.0981 33.5035 24.5972C34.0044 24.0963 34.6836 23.8145 35.392 23.8137H38.9547C39.6633 23.8137 40.343 23.5322 40.8441 23.0311C41.3452 22.53 41.6267 21.8503 41.6267 21.1417C41.6267 20.433 41.3452 19.7534 40.8441 19.2523C40.343 18.7512 39.6633 18.4697 38.9547 18.4697H35.392C33.2668 18.4721 31.2293 19.3174 29.7265 20.8201C28.2237 22.3229 27.3784 24.3604 27.376 26.4857V30.939H22.9227C22.214 30.939 21.5344 31.2205 21.0333 31.7216C20.5322 32.2227 20.2507 32.9023 20.2507 33.611C20.2507 34.3197 20.5322 34.9993 21.0333 35.5004C21.5344 36.0015 22.214 36.283 22.9227 36.283H27.376V48.5581C22.6958 47.8826 18.4451 45.4594 15.4795 41.7762C12.5138 38.093 11.0534 33.4232 11.392 28.7066C11.7307 23.99 13.8433 19.5767 17.3046 16.3549C20.766 13.1331 25.3193 11.342 30.048 11.342C34.7767 11.342 39.33 13.1331 42.7914 16.3549C46.2527 19.5767 48.3653 23.99 48.704 28.7066C49.0426 33.4232 47.5822 38.093 44.6165 41.7762C41.6509 45.4594 37.4002 47.8826 32.72 48.5581Z" fill="#E0FBFC"/>
</g>
<defs>
<clipPath id="clip0_92_444">
<rect width="60" height="60" fill="white"/>
</clipPath>
</defs>
</svg>
