<svg width="60" height="60" viewBox="0 0 60 60" fill="none" xmlns="http://www.w3.org/2000/svg">
<g clip-path="url(#clip0_92_427)">
<rect width="60" height="60" rx="30" fill="#E0FBFC"/>
<path d="M42.7856 31.7002C42.4102 31.7002 42.0178 31.5807 41.6425 31.4954C40.8824 31.3279 40.1354 31.1055 39.4074 30.83C38.616 30.5421 37.7459 30.557 36.9648 30.872C36.1837 31.187 35.5466 31.7797 35.1763 32.5362L34.8009 33.3039C33.1391 32.3795 31.6121 31.2314 30.2626 29.8917C28.9229 28.5422 27.7748 27.0151 26.8504 25.3534L27.5669 24.8757C28.3234 24.5053 28.9161 23.8682 29.2311 23.0871C29.5461 22.306 29.561 21.436 29.2731 20.6445C29.0022 19.915 28.7799 19.1683 28.6077 18.4094C28.5224 18.0341 28.4541 17.6417 28.4029 17.2493C28.1958 16.0475 27.5663 14.9592 26.6279 14.1804C25.6895 13.4015 24.5039 12.9833 23.2846 13.001H18.1662C17.4309 12.9941 16.7028 13.1457 16.0313 13.4455C15.3599 13.7453 14.761 14.1863 14.2753 14.7383C13.7896 15.2904 13.4285 15.9407 13.2167 16.6448C13.0049 17.349 12.9473 18.0905 13.0478 18.8189C13.9567 25.9665 17.221 32.6076 22.3251 37.6932C27.4292 42.7787 34.0821 46.0188 41.233 46.9017H41.8813C43.1394 46.9036 44.3542 46.442 45.2936 45.6051C45.8333 45.1223 46.2645 44.5305 46.5586 43.8688C46.8527 43.2071 47.0031 42.4904 46.9997 41.7663V36.6479C46.9788 35.4628 46.5472 34.3217 45.7787 33.4194C45.0101 32.517 43.9522 31.9094 42.7856 31.7002ZM43.6386 41.9369C43.6383 42.1792 43.5864 42.4186 43.4864 42.6392C43.3864 42.8598 43.2405 43.0566 43.0586 43.2165C42.8685 43.382 42.6456 43.5056 42.4046 43.579C42.1635 43.6525 41.9096 43.6744 41.6595 43.643C35.2699 42.8238 29.3349 39.9006 24.7906 35.3347C20.2463 30.7688 17.3514 24.8199 16.5624 18.4265C16.5353 18.1766 16.5591 17.9238 16.6324 17.6833C16.7057 17.4428 16.827 17.2197 16.989 17.0275C17.1488 16.8455 17.3456 16.6996 17.5663 16.5996C17.7869 16.4996 18.0263 16.4477 18.2686 16.4474H23.3869C23.7837 16.4386 24.1711 16.5683 24.4825 16.8143C24.7939 17.0603 25.0098 17.4072 25.0931 17.7952C25.1613 18.2616 25.2466 18.7222 25.349 19.1772C25.5461 20.0766 25.8084 20.9604 26.1338 21.8217L23.7452 22.9307C23.541 23.0244 23.3573 23.1575 23.2046 23.3224C23.052 23.4873 22.9334 23.6807 22.8558 23.8916C22.7781 24.1024 22.7428 24.3265 22.752 24.551C22.7612 24.7755 22.8146 24.996 22.9092 25.1998C25.3647 30.4594 29.5925 34.6872 34.8521 37.1427C35.2675 37.3133 35.7334 37.3133 36.1487 37.1427C36.3615 37.0666 36.5571 36.949 36.724 36.7967C36.8909 36.6444 37.026 36.4604 37.1212 36.2555L38.179 33.8669C39.061 34.1824 39.9612 34.4444 40.8747 34.6518C41.3297 34.7541 41.7903 34.8394 42.2567 34.9077C42.6447 34.9909 42.9916 35.2068 43.2376 35.5182C43.4836 35.8296 43.6133 36.217 43.6045 36.6138L43.6386 41.9369Z" fill="#293241" stroke="#293241" stroke-width="0.680451"/>
</g>
<defs>
<clipPath id="clip0_92_427">
<rect width="60" height="60" fill="white"/>
</clipPath>
</defs>
</svg>
