<svg width="60" height="60" viewBox="0 0 60 60" fill="none" xmlns="http://www.w3.org/2000/svg">
<g clip-path="url(#clip0_92_428)">
<rect width="60" height="60" rx="30" fill="#E0FBFC"/>
<path d="M54.097 30.0481C54.097 25.2921 52.6868 20.6429 50.0446 16.6883C47.4024 12.7338 43.647 9.65146 39.2532 7.83114C34.8593 6.01082 30.0243 5.53423 25.3596 6.46165C20.6949 7.38907 16.41 9.67884 13.0466 13.0414C9.68314 16.404 7.39233 20.6884 6.46377 25.3529C5.53522 30.0174 6.01062 34.8524 7.82987 39.2468C9.64912 43.6411 12.7305 47.3972 16.6844 50.0404C20.6383 52.6835 25.2872 54.0949 30.0432 54.096L30.049 54.0963L30.0547 54.096C36.4294 54.0873 42.5405 51.5507 47.0476 47.0426C51.5546 42.5345 54.0898 36.4228 54.097 30.0481ZM32.721 48.5581V36.283H37.1743C37.883 36.283 38.5626 36.0015 39.0637 35.5004C39.5648 34.9993 39.8463 34.3197 39.8463 33.611C39.8463 32.9023 39.5648 32.2227 39.0637 31.7216C38.5626 31.2205 37.883 30.939 37.1743 30.939H32.721V26.4857C32.7218 25.7773 33.0036 25.0981 33.5045 24.5972C34.0054 24.0963 34.6846 23.8145 35.393 23.8137H38.9556C39.6643 23.8137 40.3439 23.5322 40.845 23.0311C41.3461 22.53 41.6276 21.8503 41.6276 21.1417C41.6276 20.433 41.3461 19.7534 40.845 19.2523C40.3439 18.7512 39.6643 18.4697 38.9556 18.4697H35.393C33.2677 18.4721 31.2302 19.3174 29.7275 20.8201C28.2247 22.3229 27.3794 24.3604 27.377 26.4857V30.939H22.9236C22.215 30.939 21.5354 31.2205 21.0343 31.7216C20.5332 32.2227 20.2516 32.9023 20.2516 33.611C20.2516 34.3197 20.5332 34.9993 21.0343 35.5004C21.5354 36.0015 22.215 36.283 22.9236 36.283H27.377V48.5581C22.6967 47.8826 18.4461 45.4594 15.4805 41.7762C12.5148 38.093 11.0544 33.4232 11.393 28.7066C11.7316 23.99 13.8442 19.5767 17.3056 16.3549C20.767 13.1331 25.3202 11.342 30.049 11.342C34.7777 11.342 39.331 13.1331 42.7923 16.3549C46.2537 19.5767 48.3663 23.99 48.705 28.7066C49.0436 33.4232 47.5831 38.093 44.6175 41.7762C41.6519 45.4594 37.4012 47.8826 32.721 48.5581Z" fill="#293241"/>
</g>
<defs>
<clipPath id="clip0_92_428">
<rect width="60" height="60" fill="white"/>
</clipPath>
</defs>
</svg>
