<svg width="50" height="50" viewBox="0 0 50 50" fill="none" xmlns="http://www.w3.org/2000/svg">
<path d="M24.8276 45.3793V39.5172L39.4483 24.8966L45.3103 30.7586L30.6897 45.3793H24.8276ZM0 31.5862V26.069H19.3103V31.5862H0ZM47.2414 28.8276L41.3793 22.9655L43.3793 20.9655C43.8851 20.4598 44.5287 20.2069 45.3103 20.2069C46.092 20.2069 46.7356 20.4598 47.2414 20.9655L49.2414 22.9655C49.7471 23.4713 50 24.1149 50 24.8966C50 25.6782 49.7471 26.3218 49.2414 26.8276L47.2414 28.8276ZM0 20.5517V15.0345H30.3448V20.5517H0ZM0 9.51724V4H30.3448V9.51724H0Z" fill="#E0FBFC"/>
</svg>
